<svg xmlns="http://www.w3.org/2000/svg" viewBox="0 0 225.6 297.35"><defs><style>.cls-1{fill:#231f20;}.cls-1,.cls-2{stroke:#231f20;stroke-miterlimit:10;stroke-width:2.77px;}.cls-2{fill:none;}</style></defs><g id="Layer_2" data-name="Layer 2"><g id="Layer_1-2" data-name="Layer 1"><path d="M214.48,122.56c-5.64,30.78-37.6,61.26-69.56,65.17-1.14-10.29-2.72-20.57-3.17-30.93-.11-2.8,2.66-6.89,5.24-8.44,31.18-18.28,45-45.23,40.81-82.69-50.36-32-100.57-32.43-151.92,0-4.16,37.46,9.66,64.41,40.85,82.69,2.58,1.55,5.34,5.64,5.19,8.44-.4,10.36-2,20.64-3.13,30.93-32-3.91-63.92-34.39-69.56-65.17-4-21.53,7-46.64,26.43-57.18C37.47,30.21,72.89,1,111.34,0c37.2-1,75.68,31,76.75,65.4C207.52,76,218.43,101,214.48,122.56Z"/><path class="cls-1" d="M135.66,266.67A39.76,39.76,0,0,0,134.22,256a29.29,29.29,0,0,0-4.33-9.27,21.51,21.51,0,0,0-7.38-6.49,22.12,22.12,0,0,0-10.71-2.44,23.26,23.26,0,0,0-9.88,2.05,21.48,21.48,0,0,0-7.54,5.77,26,26,0,0,0-4.77,9,40.12,40.12,0,0,0-1.67,12,39.07,39.07,0,0,0,1.72,12,26.88,26.88,0,0,0,4.83,9.05,21.34,21.34,0,0,0,7.6,5.77,23.78,23.78,0,0,0,9.93,2q8.78,0,14.6-5t8-14.43h-9q-3.33,11.65-13.65,11.65a13.25,13.25,0,0,1-10.43-4.38q-3.89-4.38-4.66-12.93h38.62Zm-9.1-4H97q.67-8.31,4.44-12.7a12.93,12.93,0,0,1,10.32-4.39,13,13,0,0,1,9.66,3.72q3.66,3.72,4.88,11a6.1,6.1,0,0,1,.22,1.39Z"/><path class="cls-1" d="M78.51,247.25h-.22a18,18,0,0,0-7.38-7.16,22.9,22.9,0,0,0-10.49-2.27,21.3,21.3,0,0,0-9.37,2.05,20.26,20.26,0,0,0-7.27,5.88,28.34,28.34,0,0,0-4.66,9.16,40.05,40.05,0,0,0-1.67,12,40.65,40.65,0,0,0,1.67,12,27.74,27.74,0,0,0,4.66,9.16,20.52,20.52,0,0,0,7.27,5.82,21.3,21.3,0,0,0,9.37,2,23,23,0,0,0,10.49-2.27,18,18,0,0,0,7.38-7.16h.22v7.88h8.88V216.73H78.51Zm-.78,26.63a22.79,22.79,0,0,1-2.6,6.94,16,16,0,0,1-4.94,5.27,13.57,13.57,0,0,1-7.77,2.11,13.57,13.57,0,0,1-7.77-2.11,16,16,0,0,1-4.94-5.27,22.79,22.79,0,0,1-2.6-6.94,31.71,31.71,0,0,1,0-14,22.79,22.79,0,0,1,2.6-6.94,16.13,16.13,0,0,1,4.94-5.27,13.57,13.57,0,0,1,7.77-2.11,13.57,13.57,0,0,1,7.77,2.11A16.13,16.13,0,0,1,75.13,253a22.79,22.79,0,0,1,2.6,6.94,31.71,31.71,0,0,1,0,14Z"/><polygon class="cls-1" points="37.67 257.79 10.27 257.79 10.27 294.41 1.39 294.41 1.39 216.73 42.45 216.73 42.45 224.5 10.27 224.5 10.27 250.02 37.67 250.02 37.67 257.79"/><path class="cls-1" d="M179.27,238.92v7.77H157.75a25.31,25.31,0,0,0-3.83.22,3.53,3.53,0,0,0-2.11,1,4.06,4.06,0,0,0-.94,2.22,26.29,26.29,0,0,0-.23,3.88v40.4h-8.83V250.2a12.6,12.6,0,0,1,3-7.89q3-3.39,10.37-3.39Z"/><path class="cls-1" d="M176.5,266.66a40.11,40.11,0,0,1,1.66-12,26,26,0,0,1,4.77-9,21.43,21.43,0,0,1,7.55-5.77,23.23,23.23,0,0,1,9.88-2.06,22.23,22.23,0,0,1,10.71,2.44,21.6,21.6,0,0,1,7.37,6.5,29.12,29.12,0,0,1,4.33,9.26,39.87,39.87,0,0,1,1.44,10.65l-.11,3.78H185.49c.51,5.7,2.07,10,4.66,12.93a13.24,13.24,0,0,0,10.43,4.38q10.32,0,13.65-11.65h9q-2.22,9.43-8.05,14.42t-14.59,5a23.56,23.56,0,0,1-9.93-2.06,21.14,21.14,0,0,1-7.6-5.77,26.39,26.39,0,0,1-4.83-9A38.83,38.83,0,0,1,176.5,266.66Zm38.62-4v-.94a6.07,6.07,0,0,0-.23-1.39q-1.21-7.32-4.88-11a12.94,12.94,0,0,0-9.65-3.72q-6.56,0-10.32,4.38t-4.44,12.71Z"/><line class="cls-2" x1="150.64" y1="254.01" x2="150.64" y2="251.01"/></g></g></svg>